<svg width="348" height="91" viewBox="0 0 348 91" fill="none" xmlns="http://www.w3.org/2000/svg">
<path fill-rule="evenodd" clip-rule="evenodd" d="M53.0176 88.7386H7.70752C5.55345 88.7386 3.99406 88.1216 3.03928 86.4745C2.76357 85.9988 2.56925 85.4225 2.56925 84.6683V6.65234C2.56925 4.92623 4.25228 2.80805 5.83901 2.80805H13.5464V44.8688C17.2516 44.8688 15.7522 45.2517 20.4976 40.2925C20.994 39.7736 21.0459 39.5607 21.543 39.0433C22.5474 37.9982 24.1662 36.132 24.9907 35.5974C26.7161 36.7161 33.1009 45.7733 34.3329 45.7733H36.435V2.80805H54.4188C56.2456 2.80805 57.9222 5.01603 57.9222 6.87847V84.4421C57.9222 87.0164 55.747 88.7387 53.0175 88.7387L53.0176 88.7386ZM15.6484 42.1552V2.80805H34.0995V42.6074L27.4997 34.9772C27.0896 34.5318 26.8146 34.2108 26.4428 33.7391C26.4012 33.6865 26.2795 33.538 26.2404 33.4829C25.4905 32.4278 26.1326 32.4315 24.9908 32.4315C24.2859 32.4315 24.7146 32.4838 23.7637 33.5048L18.0406 39.7224C17.6321 40.1702 17.2863 40.3981 16.8857 40.8655C16.2966 41.553 16.448 41.6368 15.6485 42.1552H15.6484ZM7.87969e-05 7.33073V83.7638C7.87969e-05 85.9453 0.636995 87.6377 1.80216 88.8029C2.96332 89.9641 4.27095 91 6.53967 91H61.1921V0.320618C55.8712 0.320618 51.3424 0.0944115 46.0108 0.0944115C40.1215 0.0944115 8.35634 -0.27347 5.03134 0.443143C3.35092 0.805227 1.37981 2.50685 0.691443 3.9297C0.290682 4.75823 0 6.08053 0 7.33066L7.87969e-05 7.33073Z" fill="#3F5993"/>
<path fill-rule="evenodd" clip-rule="evenodd" d="M224.916 58.2106H205.063V44.1904C209.198 44.1904 223.951 43.7582 226.997 44.6623C234.613 46.9217 232.915 58.2107 224.916 58.2107V58.2106ZM224.682 41.2506H205.063V27.2304H224.215C234.705 27.2304 234.065 41.2506 224.682 41.2506ZM202.027 61.1504H225.383C232.171 61.1504 237.885 52.8787 233.375 45.95C232.055 43.9228 231.691 43.985 230.054 42.6074C232.24 42.0423 234.959 37.9063 234.959 34.9189V33.5621C234.959 28.9181 230.179 24.2907 225.383 24.2907H202.027V61.1504Z" fill="#7788B2"/>
<path fill-rule="evenodd" clip-rule="evenodd" d="M271.861 41.2506H252.242V27.2304C256.359 27.2304 271.935 26.7702 274.578 27.7652C275.297 28.0357 276.306 28.7406 276.827 29.2056C281.55 33.4201 278.304 41.2506 271.861 41.2506ZM249.206 61.1504H252.242V44.1904H264.387C265.158 44.1904 268.248 47.992 268.824 48.7135C269.241 49.2358 269.476 49.4009 269.922 49.9114L278.4 59.5679C280.065 61.6678 279.874 61.1503 283.772 61.1503C282.635 59.5065 282.836 60.0572 282.002 59.0196L275.539 51.7094C275.046 51.2082 275.025 51.0838 274.593 50.5898C273.658 49.5194 269.29 45.031 269.058 44.1904C274.182 44.1904 275.408 44.1405 278.406 41.9347C285.779 36.5093 281.161 24.2907 272.561 24.2907H249.206V61.1504Z" fill="#7788B2"/>
<path fill-rule="evenodd" clip-rule="evenodd" d="M315.069 34.2406C315.069 37.4771 316.899 40.5428 318.8 41.934C321.86 44.1717 322.949 44.1904 328.148 44.1904C331.584 44.1904 336.601 43.8927 339.534 44.4722C341.961 44.9516 344.964 47.6461 344.964 50.5221C344.964 53.6845 344.493 54.9301 341.988 56.9123C341.523 57.2798 341.476 57.3476 340.839 57.6093C338.249 58.6748 328.85 58.2106 325.111 58.2106C321.224 58.2106 318.191 54.9287 318.105 51.2005H315.069C315.069 54.0528 316.397 56.4817 317.813 58.0408C319.104 59.4627 321.978 61.1503 324.644 61.1503H338.658C343.211 61.1503 348 56.5137 348 52.105C348 48.3999 347.177 45.3842 343.895 43.1899C337.749 39.08 329.093 42.8274 322.974 40.8323C315.62 38.4345 316.739 27.2303 325.812 27.2303H337.723C339.768 27.2303 341.502 28.0551 342.576 29.0898C344.256 30.7096 344.964 31.7315 344.964 34.2404H348C348 28.3986 343.115 24.2905 338.424 24.2905H324.644C319.716 24.2905 315.068 28.8994 315.068 34.2404L315.069 34.2406Z" fill="#7788B2"/>
<path fill-rule="evenodd" clip-rule="evenodd" d="M168.628 50.296V61.1504H171.898V50.296C171.898 49.3931 173.133 47.7446 173.607 46.9755L183.797 30.836C184.472 29.7428 185.066 28.6958 185.817 27.591C186.32 26.8505 187.577 25.0273 187.78 24.2907H184.277C182.095 28.2837 176.746 36.1339 173.925 40.7254C173.213 41.8832 170.724 45.5061 170.497 46.4517C169.574 46.2131 169.69 45.7851 168.584 44.0068L157.084 25.7442C156.713 25.1697 156.433 24.9532 156.25 24.2907H152.747C152.976 25.244 154.102 26.6588 154.604 27.4668C155.717 29.255 168.628 49.2185 168.628 50.2961L168.628 50.296Z" fill="#3F5993"/>
<path fill-rule="evenodd" clip-rule="evenodd" d="M110.706 61.1504H143.871V58.2107H113.742V24.2906H110.706V61.1504Z" fill="#3F5993"/>
<path fill-rule="evenodd" clip-rule="evenodd" d="M79.8767 14.1146V77.2057H82.4459V14.1146C82.4459 13.0805 79.8767 13.0805 79.8767 14.1146Z" fill="#3F5993"/>
<path fill-rule="evenodd" clip-rule="evenodd" d="M298.019 61.3765H301.055V24.5168H298.019V61.3765Z" fill="#7788B2"/>
<path fill-rule="evenodd" clip-rule="evenodd" d="M50.4486 82.6329H29.662V84.6682H52.5505V61.6026H50.4486V82.6329Z" fill="#3F5993"/>
</svg>
